<svg width="16" height="16" viewBox="0 0 16 16" fill="none" xmlns="http://www.w3.org/2000/svg">
    <path d="M12.538 2.5c.202 0 .394.046.568.13.175.085.332.205.466.354.134.15.24.327.312.523.072.196.116.412.116.639v8.712a1.777 1.777 0 0 1-.428 1.161 1.43 1.43 0 0 1-.466.35c-.174.085-.366.131-.568.131H3.465c-.202 0-.393-.046-.568-.13a1.545 1.545 0 0 1-.466-.35 1.7 1.7 0 0 1-.315-.524A1.792 1.792 0 0 1 2 12.858V4.146c0-.227.041-.443.116-.639a1.7 1.7 0 0 1 .315-.523c.134-.15.291-.269.466-.353.175-.085.366-.131.568-.131M6.5 2.5h3M5 1.5v2M11 1.5v2M5 7h2M9 7h2M5 9h2M5 9h2M5 11h2M9 9h2M9 11h2" stroke="#222" stroke-linecap="round" stroke-linejoin="round"/>
</svg>
