<svg width="40" height="20" viewBox="0 0 40 20" fill="none" xmlns="http://www.w3.org/2000/svg">
    <path d="M19.58 6.844h4.443c.555 0 1.007-.476 1.007-1.06V4.728h-5.488c-2.942 0-4.999 2.08-4.999 5.056 0 2.977 2.057 5.053 4.999 5.053h5.488v-1.056c0-.584-.452-1.056-1.007-1.056h-4.442c-1.815 0-2.984-1.155-2.984-2.94 0-1.786 1.17-2.94 2.984-2.94zM37.135 7.809c0-1.934-1.225-3.081-3.121-3.081H26.5v7.055c0 1.826 1.255 3.053 3.121 3.053h4.391c1.868 0 3.121-1.327 3.121-3.158 0-.818-.335-1.468-.77-1.896.473-.566.77-1.193.77-1.975l.002.002zm-7.115.966v.804c0 .583.452 1.056 1.009 1.056h2.983c.915 0 1.109.6 1.109 1.045 0 .444-.194 1.045-1.109 1.045h-4.39c-1.108 0-1.108-.71-1.108-.94V6.842h5.398c1.068 0 1.207.682 1.207.966 0 .283-.139.966-1.105.966H30.02zM3.852 4.728h-.989v9.052c0 .584.304 1.056 1.01 1.056H4.88V5.784c0-.586-.342-1.056-1.027-1.056zm9.557 7.917L7.43 10.078c-.134-.064-.226-.143-.226-.294s.092-.239.226-.296l5.98-2.57c.52-.207.777-.822.579-1.366l-.36-.985S7.68 7.114 6.805 7.484c-.896.379-1.568 1.166-1.568 2.212v.174c0 1.045.673 1.833 1.568 2.212.876.37 6.822 2.918 6.822 2.918l.36-.987c.198-.544-.059-1.16-.58-1.368h.002z" fill="#fff"/>
</svg>
