<svg width="20" height="20" viewBox="0 0 20 20" fill="none" xmlns="http://www.w3.org/2000/svg">
    <path d="m6.692 9.675 2.009 1.649c.194.16.42.28.656.357a2.384 2.384 0 0 0 1.5 0c.24-.08.462-.2.657-.357l2.008-1.649 2.008-1.648 1.352-1.11v-.191s-.004-.029-.004-.045a1.013 1.013 0 0 0-.124-.44 1.203 1.203 0 0 0-.307-.357 1.426 1.426 0 0 0-.446-.24 1.67 1.67 0 0 0-.544-.088h-10.7a1.67 1.67 0 0 0-.543.089c-.167.057-.319.14-.447.24a1.203 1.203 0 0 0-.307.356.964.964 0 0 0-.124.44c0 .016-.004.029-.004.045v.191l1.352 1.11 2.008 1.648z" stroke="#fff" stroke-linecap="round" stroke-linejoin="round"/>
    <path d="M3.332 6.915v7.175c0 .647.637 1.17 1.426 1.17h10.699c.788 0 1.425-.523 1.425-1.17V6.915" stroke="#fff" stroke-linecap="round" stroke-linejoin="round"/>
</svg>
