<svg width="20" height="20" viewBox="0 0 20 20" fill="none" xmlns="http://www.w3.org/2000/svg">
    <path d="M15.433 16.595v-1.95c0-2.023-1.282-3.751-3.097-4.464M10.493 3.333c-2.07 0-3.755 1.638-3.755 3.66 0 1.366.77 2.559 1.913 3.185a3.833 3.833 0 0 0 3.685 0c1.141-.626 1.912-1.819 1.912-3.185 0-2.022-1.68-3.66-3.755-3.66z" stroke="#fff" stroke-linecap="round" stroke-linejoin="round"/>
    <path d="M8.651 10.179c-1.815.713-3.096 2.441-3.096 4.464v1.95c0 .585.484 1.06 1.084 1.06h7.706c.6 0 1.088-.475 1.088-1.06" stroke="#fff" stroke-linecap="round" stroke-linejoin="round"/>
</svg>
