<svg width="20" height="20" viewBox="0 0 20 20" fill="none" xmlns="http://www.w3.org/2000/svg">
    <path d="M6.895 11H4.656c-.296 0-.58-.059-.84-.161a2.25 2.25 0 0 1-.686-.44 2.07 2.07 0 0 1-.461-.657A1.952 1.952 0 0 1 2.5 8.94V7.06a2.02 2.02 0 0 1 .63-1.458A2.21 2.21 0 0 1 4.657 5h10.687c.296 0 .58.059.84.161.258.106.489.256.686.44.198.185.354.41.461.657.111.248.169.52.169.802v1.88a2.02 2.02 0 0 1-.63 1.458 2.21 2.21 0 0 1-1.527.602h-2.238" stroke="#fff" stroke-linecap="round" stroke-linejoin="round"/>
    <path d="M11.768 9.732c.976.98.976 2.56 0 3.536a2.503 2.503 0 0 1-3.536 0 2.503 2.503 0 0 1 0-3.536 2.503 2.503 0 0 1 3.536 0zM12.5 13l2 2" stroke="#fff" stroke-linecap="round" stroke-linejoin="round"/>
</svg>
