<svg width="20" height="20" viewBox="0 0 20 20" fill="none" xmlns="http://www.w3.org/2000/svg">
    <path d="M14.097 7.292V5.188c0-1.024-.876-1.855-1.956-1.855h-5.74c-1.08 0-1.956.831-1.956 1.855v9.896c0 1.024.877 1.856 1.957 1.856h5.739c1.08 0 1.956-.832 1.956-1.856V12.18M8.484 5.063h1.565" stroke="#fff" stroke-linecap="round" stroke-linejoin="round"/>
    <path d="M14.747 7.344H9.94c-.571 0-1.037.441-1.037.983v2.865c0 .541.466.983 1.037.983h1.585l.817 1.046.818-1.046h1.584c.572 0 1.037-.442 1.037-.983V8.327c0-.542-.465-.983-1.037-.983h.004z" stroke="#fff" stroke-linecap="round" stroke-linejoin="round"/>
</svg>
