<svg width="20" height="20" viewBox="0 0 20 20" fill="none" xmlns="http://www.w3.org/2000/svg">
    <path d="M16.785 6.585H8.301l-.406-1.069-.046-.119-.102-.271c-.14-.375-.649-.682-1.127-.682H4.197c-.474 0-.865.322-.865.713v9.753c0 .39.39.712.865.712h12.588c.474 0 .865-.322.865-.712V7.297c0-.39-.39-.712-.865-.712z" stroke="#444" stroke-linecap="round" stroke-linejoin="round"/>
    <path d="m12.82 6.585-.406-1.069-.148-.39c-.144-.375-.648-.682-1.122-.682H8.72c-.478 0-.868.322-.868.713v.237l.045.12" stroke="#444" stroke-linecap="round" stroke-linejoin="round"/>
</svg>
