<svg width="20" height="20" viewBox="0 0 20 20" fill="none" xmlns="http://www.w3.org/2000/svg">
    <path d="M14.236 3.333h-8.98c-1.062 0-1.924.844-1.924 1.885v10.555c0 1.041.862 1.885 1.925 1.885h8.98c1.062 0 1.924-.844 1.924-1.885V5.218c0-1.041-.862-1.885-1.925-1.885zM12.629 10.624h.92M12.629 13.827h.92M9.285 10.624h.92M9.285 13.827h.92M5.95 10.624h.92M5.95 13.827h.92" stroke="#444" stroke-linecap="round" stroke-linejoin="round"/>
    <path d="M14.173 6.852c0 .52-.43.942-.962.942H6.283a.953.953 0 0 1-.963-.942c0-.52.431-.943.963-.943h6.928c.531 0 .962.422.962.943z" stroke="#FF9015" stroke-linecap="round" stroke-linejoin="round"/>
</svg>
