<svg width="20" height="20" viewBox="0 0 20 20" fill="none" xmlns="http://www.w3.org/2000/svg">
    <path d="M3.996 14.233v1.928a.62.62 0 0 0 .054.26.695.695 0 0 0 .639.41h10.277a.676.676 0 0 0 .268-.052.694.694 0 0 0 .37-.358.63.63 0 0 0 .055-.26V6.808l-.726-.702-.725-.703-.725-.702L12.758 4h-8.07a.72.72 0 0 0-.49.197.695.695 0 0 0-.148.214.631.631 0 0 0-.054.26v9.563z" stroke="#222" stroke-linecap="round" stroke-linejoin="round"/>
    <path d="M14.147 7.529H12.22V5.66" stroke="#FF3E3E" stroke-linecap="round" stroke-linejoin="round"/>
</svg>
