<svg width="20" height="20" viewBox="0 0 20 20" fill="none" xmlns="http://www.w3.org/2000/svg">
    <path d="M6.511 11.082c0 .632-.57 1.146-1.271 1.146s-1.271-.514-1.271-1.146c0-.633.57-1.146 1.271-1.146s1.271.513 1.271 1.146zM16.14 11.082c0 .632-.57 1.146-1.271 1.146s-1.271-.514-1.271-1.146c0-.633.57-1.146 1.27-1.146.702 0 1.272.513 1.272 1.146z" fill="#FF3E3E"/>
    <path d="m4.39 8.243 1.238-3.256C5.834 4.443 6.678 4 7.5 4h5.13c.822 0 1.662.446 1.872.987l1.237 3.256M4.488 15.195c0 .544.488.984 1.092.984.603 0 1.09-.44 1.09-.984v-1.322H4.489v1.322zM13.465 15.195c0 .544.487.984 1.091.984s1.091-.44 1.091-.984v-1.322h-2.182v1.322z" stroke="#222" stroke-linecap="round" stroke-linejoin="round"/>
    <path d="M16.306 8.313H3.82C2.814 8.313 2 9.046 2 9.953v2.295c0 .905.814 1.64 1.819 1.64h12.487c1.005 0 1.819-.735 1.819-1.64V9.952c0-.906-.814-1.64-1.819-1.64z" stroke="#222" stroke-linecap="round" stroke-linejoin="round"/>
</svg>
