<svg width="16" height="16" viewBox="0 0 16 16" fill="none" xmlns="http://www.w3.org/2000/svg">
    <path d="M9.12 4.88a2.997 2.997 0 0 1 0 4.24 2.997 2.997 0 0 1-4.24 0 2.997 2.997 0 0 1 0-4.24 2.997 2.997 0 0 1 4.24 0zM9.5 9.5l2 2" stroke="#222" stroke-linecap="round" stroke-linejoin="round"/>
    <path d="M12.364 2H3.636C2.733 2 2 2.733 2 3.636v8.728C2 13.267 2.733 14 3.636 14h8.728c.903 0 1.636-.733 1.636-1.636V3.636C14 2.733 13.267 2 12.364 2z" stroke="#222" stroke-linecap="round" stroke-linejoin="round"/>
</svg>
