<svg width="16" height="16" viewBox="0 0 16 16" fill="none" xmlns="http://www.w3.org/2000/svg">
    <path fill-rule="evenodd" clip-rule="evenodd" d="M16 0H0v16h16V0zM7.051 2.124l-3.8-.123a1.213 1.213 0 0 0-1.25 1.25l.122 3.8c.01.308.136.6.354.819l5.776 5.775a1.213 1.213 0 0 0 1.714 0l3.678-3.677a1.211 1.211 0 0 0 0-1.714L7.868 2.478a1.207 1.207 0 0 0-.817-.354zm-4.05.878a.533.533 0 1 1 .754.754.533.533 0 0 1-.754-.754zm3.25 5.242a1 1 0 0 1 0-1.414l.583-.582a1 1 0 0 1 1.414 0l2.045 2.045a1 1 0 0 1 0 1.414l-.582.582a1 1 0 0 1-1.414 0L6.252 8.244z" fill="#fff"/>
    <rect x="2.223" y="1.518" width="3.5" height="1" rx=".5" transform="rotate(45 2.223 1.518)" fill="#222"/>
</svg>
