<svg width="16" height="16" viewBox="0 0 16 16" fill="none" xmlns="http://www.w3.org/2000/svg">
    <path fill-rule="evenodd" clip-rule="evenodd" d="M16 0H0v16h16V0zM2.344 2.025 13.654 2c.191 0 .346.156.346.35 0 .193-.154.35-.344.35l-.857.004a.29.29 0 0 0-.287.293l.022 7.552c0 .22-.163.39-.42.59L8.555 13.82c-.535.403-1.073 0-1.073 0l-3.548-2.667c-.237-.163-.422-.386-.422-.605l-.022-7.535a.29.29 0 0 0-.289-.292l-.856.004A.348.348 0 0 1 2 2.376c0-.193.154-.35.344-.35zm6.972 5.688.95-.701c.226-.167.11-.529-.169-.529H8.923a.288.288 0 0 1-.274-.202l-.363-1.134a.287.287 0 0 0-.548 0l-.363 1.134a.288.288 0 0 1-.273.202H5.927c-.279 0-.395.362-.17.529l.951.7c.1.075.143.207.105.327L6.45 9.173c-.087.27.217.493.443.327l.95-.7a.284.284 0 0 1 .338 0l.95.7c.226.166.53-.057.444-.327L9.212 8.04a.295.295 0 0 1 .104-.326z" fill="#fff"/>
    <rect x="1" y="2" width="14" height="1" rx=".5" fill="#222"/>
</svg>
